<svg xmlns="http://www.w3.org/2000/svg" xmlns:xlink="http://www.w3.org/1999/xlink" width="500" zoomAndPan="magnify" viewBox="0 0 375 374.999991" height="500" preserveAspectRatio="xMidYMid meet" version="1.0"><defs><clipPath id="f2babe0697"><path d="M 34.78125 34.78125 L 340.03125 34.78125 L 340.03125 340.03125 L 34.78125 340.03125 Z M 34.78125 34.78125 " clip-rule="nonzero"/></clipPath></defs><rect x="-37.5" width="450" fill="#ffffff" y="-37.499999" height="449.999989" fill-opacity="1"/><rect x="-37.5" width="450" fill="#ffffff" y="-37.499999" height="449.999989" fill-opacity="1"/><path fill="#55298b" d="M 229.480469 124.289062 L 229.480469 97.238281 L 114.867188 97.238281 L 114.867188 277.570312 L 259.941406 277.570312 L 259.941406 127.292969 L 229.480469 127.292969 Z M 137.46875 144.027344 C 137.46875 142.367188 138.8125 141.023438 140.472656 141.023438 L 234.335938 141.023438 C 235.992188 141.023438 237.339844 142.367188 237.339844 144.027344 C 237.339844 145.6875 235.992188 147.035156 234.335938 147.035156 L 140.472656 147.035156 C 138.8125 147.035156 137.46875 145.6875 137.46875 144.027344 Z M 137.46875 182.53125 C 137.46875 180.871094 138.8125 179.527344 140.472656 179.527344 L 234.335938 179.527344 C 235.992188 179.527344 237.339844 180.871094 237.339844 182.53125 C 237.339844 184.191406 235.992188 185.539062 234.335938 185.539062 L 140.472656 185.539062 C 138.8125 185.539062 137.46875 184.191406 137.46875 182.53125 Z M 137.46875 221.035156 C 137.46875 219.375 138.8125 218.027344 140.472656 218.027344 L 234.335938 218.027344 C 235.992188 218.027344 237.339844 219.375 237.339844 221.035156 C 237.339844 222.695312 235.992188 224.039062 234.335938 224.039062 L 140.472656 224.039062 C 138.8125 224.039062 137.46875 222.695312 137.46875 221.035156 Z M 137.46875 259.535156 C 137.46875 257.878906 138.8125 256.53125 140.472656 256.53125 L 234.335938 256.53125 C 235.992188 256.53125 237.339844 257.878906 237.339844 259.535156 C 237.339844 261.195312 235.992188 262.542969 234.335938 262.542969 L 140.472656 262.542969 C 138.8125 262.542969 137.46875 261.195312 137.46875 259.535156 " fill-opacity="1" fill-rule="evenodd"/><path fill="#55298b" d="M 256.28125 121.28125 L 235.492188 100.496094 L 235.492188 121.28125 Z M 256.28125 121.28125 " fill-opacity="1" fill-rule="evenodd"/><g clip-path="url(#f2babe0697)"><path fill="#55298b" d="M 187.40625 34.78125 C 271.695312 34.78125 340.03125 103.113281 340.03125 187.40625 C 340.03125 271.695312 271.695312 340.03125 187.40625 340.03125 C 103.113281 340.03125 34.78125 271.695312 34.78125 187.40625 C 34.78125 103.113281 103.113281 34.78125 187.40625 34.78125 Z M 187.40625 51.683594 C 112.449219 51.683594 51.683594 112.449219 51.683594 187.40625 C 51.683594 262.359375 112.449219 323.125 187.40625 323.125 C 262.359375 323.125 323.125 262.359375 323.125 187.40625 C 323.125 112.449219 262.359375 51.683594 187.40625 51.683594 " fill-opacity="1" fill-rule="evenodd"/></g></svg>