<svg xmlns="http://www.w3.org/2000/svg" xmlns:xlink="http://www.w3.org/1999/xlink" width="500" zoomAndPan="magnify" viewBox="0 0 375 374.999991" height="500" preserveAspectRatio="xMidYMid meet" version="1.0"><defs><clipPath id="fa2acf8f74"><path d="M 34.960938 34.960938 L 340.210938 34.960938 L 340.210938 340.210938 L 34.960938 340.210938 Z M 34.960938 34.960938 " clip-rule="nonzero"/></clipPath><clipPath id="e495f2040e"><path d="M 111.722656 100.488281 L 280.472656 100.488281 L 280.472656 269.238281 L 111.722656 269.238281 Z M 111.722656 100.488281 " clip-rule="nonzero"/></clipPath></defs><rect x="-37.5" width="450" fill="#ffffff" y="-37.499999" height="449.999989" fill-opacity="1"/><rect x="-37.5" width="450" fill="#ffffff" y="-37.499999" height="449.999989" fill-opacity="1"/><g clip-path="url(#fa2acf8f74)"><path fill="#55298b" d="M 340.210938 187.585938 C 340.210938 190.082031 340.148438 192.578125 340.027344 195.074219 C 339.902344 197.566406 339.71875 200.058594 339.472656 202.542969 C 339.230469 205.03125 338.925781 207.507812 338.558594 209.980469 C 338.191406 212.449219 337.765625 214.910156 337.277344 217.359375 C 336.789062 219.808594 336.242188 222.246094 335.636719 224.667969 C 335.027344 227.09375 334.363281 229.5 333.636719 231.890625 C 332.914062 234.28125 332.128906 236.652344 331.289062 239.003906 C 330.445312 241.355469 329.546875 243.683594 328.589844 245.992188 C 327.636719 248.300781 326.625 250.582031 325.554688 252.839844 C 324.488281 255.097656 323.363281 257.328125 322.1875 259.53125 C 321.011719 261.734375 319.78125 263.90625 318.496094 266.050781 C 317.210938 268.191406 315.875 270.300781 314.488281 272.378906 C 313.101562 274.457031 311.660156 276.496094 310.175781 278.503906 C 308.6875 280.507812 307.148438 282.476562 305.566406 284.410156 C 303.980469 286.339844 302.347656 288.230469 300.671875 290.082031 C 298.996094 291.933594 297.273438 293.742188 295.507812 295.507812 C 293.742188 297.273438 291.933594 298.996094 290.082031 300.671875 C 288.230469 302.347656 286.339844 303.980469 284.410156 305.566406 C 282.476562 307.148438 280.507812 308.6875 278.503906 310.175781 C 276.496094 311.660156 274.457031 313.101562 272.378906 314.488281 C 270.300781 315.875 268.191406 317.210938 266.050781 318.496094 C 263.90625 319.78125 261.734375 321.011719 259.53125 322.1875 C 257.328125 323.363281 255.097656 324.488281 252.839844 325.554688 C 250.582031 326.625 248.300781 327.636719 245.992188 328.589844 C 243.683594 329.546875 241.355469 330.445312 239.003906 331.289062 C 236.652344 332.128906 234.28125 332.914062 231.890625 333.636719 C 229.5 334.363281 227.09375 335.027344 224.667969 335.636719 C 222.246094 336.242188 219.808594 336.789062 217.359375 337.277344 C 214.910156 337.765625 212.449219 338.191406 209.980469 338.558594 C 207.507812 338.925781 205.03125 339.230469 202.542969 339.472656 C 200.058594 339.71875 197.566406 339.902344 195.074219 340.027344 C 192.578125 340.148438 190.082031 340.210938 187.585938 340.210938 C 185.085938 340.210938 182.589844 340.148438 180.09375 340.027344 C 177.601562 339.902344 175.109375 339.71875 172.625 339.472656 C 170.140625 339.230469 167.660156 338.925781 165.191406 338.558594 C 162.71875 338.191406 160.257812 337.765625 157.808594 337.277344 C 155.359375 336.789062 152.921875 336.242188 150.5 335.636719 C 148.078125 335.027344 145.671875 334.363281 143.28125 333.636719 C 140.890625 332.914062 138.519531 332.128906 136.167969 331.289062 C 133.816406 330.445312 131.484375 329.546875 129.175781 328.589844 C 126.871094 327.636719 124.585938 326.625 122.328125 325.554688 C 120.070312 324.488281 117.839844 323.363281 115.636719 322.1875 C 113.433594 321.011719 111.261719 319.78125 109.121094 318.496094 C 106.976562 317.210938 104.867188 315.875 102.789062 314.488281 C 100.714844 313.101562 98.671875 311.660156 96.664062 310.175781 C 94.660156 308.6875 92.691406 307.148438 90.761719 305.566406 C 88.828125 303.980469 86.9375 302.347656 85.085938 300.671875 C 83.238281 298.996094 81.429688 297.273438 79.664062 295.507812 C 77.894531 293.742188 76.175781 291.933594 74.496094 290.082031 C 72.820312 288.230469 71.1875 286.339844 69.605469 284.410156 C 68.019531 282.476562 66.484375 280.507812 64.996094 278.503906 C 63.507812 276.496094 62.070312 274.457031 60.679688 272.378906 C 59.292969 270.300781 57.957031 268.191406 56.671875 266.050781 C 55.390625 263.90625 54.160156 261.734375 52.980469 259.53125 C 51.804688 257.328125 50.679688 255.097656 49.613281 252.839844 C 48.546875 250.582031 47.535156 248.300781 46.578125 245.992188 C 45.621094 243.683594 44.722656 241.355469 43.882812 239.003906 C 43.039062 236.652344 42.257812 234.28125 41.53125 231.890625 C 40.804688 229.5 40.140625 227.09375 39.535156 224.667969 C 38.925781 222.246094 38.378906 219.808594 37.890625 217.359375 C 37.40625 214.910156 36.976562 212.449219 36.613281 209.980469 C 36.246094 207.507812 35.9375 205.03125 35.695312 202.542969 C 35.449219 200.058594 35.265625 197.566406 35.144531 195.074219 C 35.019531 192.578125 34.960938 190.082031 34.960938 187.585938 C 34.960938 185.085938 35.019531 182.589844 35.144531 180.09375 C 35.265625 177.601562 35.449219 175.109375 35.695312 172.625 C 35.9375 170.140625 36.246094 167.660156 36.613281 165.191406 C 36.976562 162.71875 37.40625 160.257812 37.890625 157.808594 C 38.378906 155.359375 38.925781 152.921875 39.535156 150.5 C 40.140625 148.078125 40.804688 145.671875 41.53125 143.28125 C 42.257812 140.890625 43.039062 138.519531 43.882812 136.167969 C 44.722656 133.816406 45.621094 131.484375 46.578125 129.175781 C 47.535156 126.871094 48.546875 124.585938 49.613281 122.328125 C 50.679688 120.070312 51.804688 117.839844 52.980469 115.636719 C 54.160156 113.433594 55.390625 111.261719 56.671875 109.121094 C 57.957031 106.976562 59.292969 104.867188 60.679688 102.789062 C 62.070312 100.714844 63.507812 98.671875 64.996094 96.664062 C 66.484375 94.660156 68.019531 92.691406 69.605469 90.761719 C 71.1875 88.828125 72.820312 86.9375 74.496094 85.085938 C 76.175781 83.238281 77.894531 81.429688 79.664062 79.664062 C 81.429688 77.894531 83.238281 76.175781 85.085938 74.496094 C 86.9375 72.820312 88.828125 71.1875 90.761719 69.605469 C 92.691406 68.019531 94.660156 66.484375 96.664062 64.996094 C 98.671875 63.507812 100.714844 62.070312 102.789062 60.679688 C 104.867188 59.292969 106.976562 57.957031 109.121094 56.671875 C 111.261719 55.390625 113.433594 54.160156 115.636719 52.980469 C 117.839844 51.804688 120.070312 50.679688 122.328125 49.613281 C 124.585938 48.546875 126.871094 47.535156 129.175781 46.578125 C 131.484375 45.621094 133.816406 44.722656 136.167969 43.882812 C 138.519531 43.039062 140.890625 42.257812 143.28125 41.53125 C 145.671875 40.804688 148.078125 40.140625 150.5 39.535156 C 152.921875 38.925781 155.359375 38.378906 157.808594 37.890625 C 160.257812 37.40625 162.71875 36.976562 165.191406 36.613281 C 167.660156 36.246094 170.140625 35.9375 172.625 35.695312 C 175.109375 35.449219 177.601562 35.265625 180.09375 35.144531 C 182.589844 35.019531 185.085938 34.960938 187.585938 34.960938 C 190.082031 34.960938 192.578125 35.019531 195.074219 35.144531 C 197.566406 35.265625 200.058594 35.449219 202.542969 35.695312 C 205.03125 35.9375 207.507812 36.246094 209.980469 36.613281 C 212.449219 36.976562 214.910156 37.40625 217.359375 37.890625 C 219.808594 38.378906 222.246094 38.925781 224.667969 39.535156 C 227.09375 40.140625 229.5 40.804688 231.890625 41.53125 C 234.28125 42.257812 236.652344 43.039062 239.003906 43.882812 C 241.355469 44.722656 243.683594 45.621094 245.992188 46.578125 C 248.300781 47.535156 250.582031 48.546875 252.839844 49.613281 C 255.097656 50.679688 257.328125 51.804688 259.53125 52.980469 C 261.734375 54.160156 263.90625 55.390625 266.050781 56.671875 C 268.191406 57.957031 270.300781 59.292969 272.378906 60.679688 C 274.457031 62.070312 276.496094 63.507812 278.503906 64.996094 C 280.507812 66.484375 282.476562 68.019531 284.410156 69.605469 C 286.339844 71.1875 288.230469 72.820312 290.082031 74.496094 C 291.933594 76.175781 293.742188 77.894531 295.507812 79.664062 C 297.273438 81.429688 298.996094 83.238281 300.671875 85.085938 C 302.347656 86.9375 303.980469 88.828125 305.566406 90.761719 C 307.148438 92.691406 308.6875 94.660156 310.175781 96.664062 C 311.660156 98.671875 313.101562 100.714844 314.488281 102.789062 C 315.875 104.867188 317.210938 106.976562 318.496094 109.121094 C 319.78125 111.261719 321.011719 113.433594 322.1875 115.636719 C 323.363281 117.839844 324.488281 120.070312 325.554688 122.328125 C 326.625 124.585938 327.636719 126.871094 328.589844 129.175781 C 329.546875 131.484375 330.445312 133.816406 331.289062 136.167969 C 332.128906 138.519531 332.914062 140.890625 333.636719 143.28125 C 334.363281 145.671875 335.027344 148.078125 335.636719 150.5 C 336.242188 152.921875 336.789062 155.359375 337.277344 157.808594 C 337.765625 160.257812 338.191406 162.71875 338.558594 165.191406 C 338.925781 167.660156 339.230469 170.140625 339.472656 172.625 C 339.71875 175.109375 339.902344 177.601562 340.027344 180.09375 C 340.148438 182.589844 340.210938 185.085938 340.210938 187.585938 Z M 340.210938 187.585938 " fill-opacity="1" fill-rule="nonzero"/></g><path fill="#6d5bcc" d="M 331.363281 187.585938 C 331.363281 189.9375 331.304688 192.289062 331.1875 194.640625 C 331.074219 196.988281 330.898438 199.335938 330.667969 201.675781 C 330.4375 204.019531 330.152344 206.351562 329.804688 208.679688 C 329.460938 211.007812 329.058594 213.328125 328.597656 215.632812 C 328.140625 217.941406 327.625 220.238281 327.054688 222.519531 C 326.480469 224.800781 325.855469 227.070312 325.171875 229.320312 C 324.488281 231.574219 323.75 233.804688 322.957031 236.023438 C 322.164062 238.238281 321.316406 240.433594 320.417969 242.605469 C 319.515625 244.78125 318.5625 246.929688 317.558594 249.058594 C 316.550781 251.183594 315.492188 253.285156 314.382812 255.359375 C 313.277344 257.4375 312.117188 259.480469 310.90625 261.5 C 309.695312 263.519531 308.4375 265.507812 307.128906 267.460938 C 305.824219 269.417969 304.46875 271.34375 303.066406 273.230469 C 301.664062 275.121094 300.21875 276.976562 298.726562 278.796875 C 297.234375 280.613281 295.695312 282.394531 294.117188 284.140625 C 292.535156 285.882812 290.914062 287.585938 289.25 289.25 C 287.585938 290.914062 285.882812 292.535156 284.140625 294.117188 C 282.394531 295.695312 280.613281 297.234375 278.796875 298.726562 C 276.976562 300.21875 275.121094 301.664062 273.234375 303.066406 C 271.34375 304.46875 269.417969 305.824219 267.460938 307.128906 C 265.507812 308.4375 263.519531 309.695312 261.5 310.90625 C 259.484375 312.117188 257.4375 313.273438 255.359375 314.382812 C 253.285156 315.492188 251.183594 316.550781 249.058594 317.558594 C 246.929688 318.5625 244.78125 319.515625 242.605469 320.417969 C 240.433594 321.316406 238.238281 322.164062 236.023438 322.957031 C 233.804688 323.75 231.574219 324.488281 229.320312 325.171875 C 227.070312 325.855469 224.800781 326.480469 222.519531 327.054688 C 220.238281 327.625 217.941406 328.140625 215.632812 328.597656 C 213.328125 329.058594 211.007812 329.460938 208.679688 329.804688 C 206.351562 330.152344 204.019531 330.4375 201.675781 330.667969 C 199.335938 330.898438 196.988281 331.074219 194.640625 331.1875 C 192.289062 331.304688 189.9375 331.363281 187.585938 331.363281 C 185.230469 331.363281 182.878906 331.304688 180.53125 331.1875 C 178.179688 331.074219 175.832031 330.898438 173.492188 330.667969 C 171.148438 330.4375 168.816406 330.152344 166.488281 329.804688 C 164.160156 329.460938 161.84375 329.058594 159.535156 328.597656 C 157.226562 328.140625 154.933594 327.625 152.648438 327.054688 C 150.367188 326.480469 148.101562 325.855469 145.847656 325.171875 C 143.597656 324.488281 141.363281 323.75 139.148438 322.957031 C 136.933594 322.164062 134.738281 321.316406 132.5625 320.417969 C 130.390625 319.515625 128.238281 318.5625 126.113281 317.558594 C 123.984375 316.550781 121.882812 315.492188 119.808594 314.382812 C 117.734375 313.273438 115.6875 312.117188 113.667969 310.90625 C 111.648438 309.695312 109.664062 308.4375 107.707031 307.128906 C 105.75 305.824219 103.828125 304.46875 101.9375 303.066406 C 100.046875 301.664062 98.191406 300.21875 96.375 298.726562 C 94.554688 297.234375 92.773438 295.695312 91.03125 294.117188 C 89.285156 292.535156 87.582031 290.914062 85.917969 289.25 C 84.253906 287.585938 82.632812 285.882812 81.050781 284.140625 C 79.472656 282.394531 77.9375 280.613281 76.441406 278.796875 C 74.949219 276.976562 73.503906 275.121094 72.101562 273.230469 C 70.699219 271.34375 69.34375 269.417969 68.039062 267.460938 C 66.730469 265.507812 65.472656 263.519531 64.261719 261.5 C 63.054688 259.484375 61.894531 257.4375 60.785156 255.359375 C 59.675781 253.285156 58.617188 251.183594 57.613281 249.058594 C 56.605469 246.929688 55.652344 244.78125 54.75 242.605469 C 53.851562 240.433594 53.003906 238.238281 52.210938 236.023438 C 51.417969 233.804688 50.679688 231.574219 50 229.320312 C 49.316406 227.070312 48.6875 224.800781 48.117188 222.519531 C 47.542969 220.238281 47.027344 217.941406 46.570312 215.632812 C 46.109375 213.328125 45.707031 211.007812 45.363281 208.679688 C 45.019531 206.351562 44.730469 204.019531 44.5 201.675781 C 44.269531 199.335938 44.097656 196.988281 43.980469 194.640625 C 43.863281 192.289062 43.808594 189.9375 43.808594 187.585938 C 43.808594 185.230469 43.863281 182.878906 43.980469 180.53125 C 44.097656 178.179688 44.269531 175.832031 44.5 173.492188 C 44.730469 171.148438 45.019531 168.816406 45.363281 166.488281 C 45.707031 164.160156 46.109375 161.84375 46.570312 159.535156 C 47.027344 157.226562 47.542969 154.933594 48.117188 152.648438 C 48.6875 150.367188 49.316406 148.101562 50 145.847656 C 50.679688 143.597656 51.417969 141.363281 52.210938 139.148438 C 53.003906 136.933594 53.851562 134.738281 54.75 132.5625 C 55.652344 130.390625 56.605469 128.238281 57.613281 126.113281 C 58.617188 123.984375 59.675781 121.882812 60.785156 119.808594 C 61.894531 117.734375 63.054688 115.6875 64.261719 113.667969 C 65.472656 111.648438 66.730469 109.664062 68.039062 107.707031 C 69.34375 105.75 70.699219 103.828125 72.101562 101.9375 C 73.503906 100.046875 74.949219 98.191406 76.441406 96.375 C 77.9375 94.554688 79.472656 92.773438 81.050781 91.03125 C 82.632812 89.285156 84.253906 87.582031 85.917969 85.917969 C 87.582031 84.253906 89.285156 82.632812 91.03125 81.050781 C 92.773438 79.472656 94.554688 77.9375 96.375 76.441406 C 98.191406 74.949219 100.046875 73.503906 101.9375 72.101562 C 103.828125 70.699219 105.75 69.34375 107.707031 68.039062 C 109.664062 66.730469 111.648438 65.472656 113.667969 64.261719 C 115.6875 63.054688 117.734375 61.894531 119.808594 60.785156 C 121.882812 59.675781 123.984375 58.617188 126.113281 57.613281 C 128.238281 56.605469 130.390625 55.652344 132.5625 54.75 C 134.738281 53.851562 136.933594 53.003906 139.148438 52.210938 C 141.363281 51.417969 143.597656 50.679688 145.847656 50 C 148.101562 49.316406 150.367188 48.6875 152.648438 48.117188 C 154.933594 47.542969 157.226562 47.027344 159.535156 46.570312 C 161.84375 46.109375 164.160156 45.707031 166.488281 45.363281 C 168.816406 45.019531 171.148438 44.730469 173.492188 44.5 C 175.832031 44.269531 178.179688 44.097656 180.53125 43.980469 C 182.878906 43.863281 185.230469 43.808594 187.585938 43.808594 C 189.9375 43.808594 192.289062 43.863281 194.640625 43.980469 C 196.988281 44.097656 199.335938 44.269531 201.675781 44.5 C 204.019531 44.730469 206.351562 45.019531 208.679688 45.363281 C 211.007812 45.707031 213.328125 46.109375 215.632812 46.570312 C 217.941406 47.027344 220.238281 47.542969 222.519531 48.117188 C 224.800781 48.6875 227.070312 49.316406 229.320312 50 C 231.574219 50.679688 233.804688 51.417969 236.023438 52.210938 C 238.238281 53.003906 240.433594 53.851562 242.605469 54.75 C 244.78125 55.652344 246.929688 56.605469 249.058594 57.613281 C 251.183594 58.617188 253.285156 59.675781 255.359375 60.785156 C 257.4375 61.894531 259.484375 63.054688 261.5 64.261719 C 263.519531 65.472656 265.507812 66.730469 267.460938 68.039062 C 269.417969 69.34375 271.34375 70.699219 273.234375 72.101562 C 275.121094 73.503906 276.976562 74.949219 278.796875 76.441406 C 280.613281 77.9375 282.394531 79.472656 284.140625 81.050781 C 285.882812 82.632812 287.585938 84.253906 289.25 85.917969 C 290.914062 87.582031 292.535156 89.285156 294.117188 91.03125 C 295.695312 92.773438 297.234375 94.554688 298.726562 96.375 C 300.21875 98.191406 301.664062 100.046875 303.066406 101.9375 C 304.46875 103.828125 305.824219 105.75 307.128906 107.707031 C 308.4375 109.664062 309.695312 111.648438 310.90625 113.667969 C 312.117188 115.6875 313.277344 117.734375 314.382812 119.808594 C 315.492188 121.882812 316.550781 123.984375 317.558594 126.113281 C 318.5625 128.238281 319.515625 130.390625 320.417969 132.5625 C 321.316406 134.738281 322.164062 136.933594 322.957031 139.148438 C 323.75 141.363281 324.488281 143.597656 325.171875 145.847656 C 325.855469 148.101562 326.480469 150.367188 327.054688 152.648438 C 327.625 154.933594 328.140625 157.226562 328.597656 159.535156 C 329.058594 161.84375 329.460938 164.160156 329.804688 166.488281 C 330.152344 168.816406 330.4375 171.148438 330.667969 173.492188 C 330.898438 175.832031 331.074219 178.179688 331.1875 180.53125 C 331.304688 182.878906 331.363281 185.230469 331.363281 187.585938 Z M 331.363281 187.585938 " fill-opacity="1" fill-rule="nonzero"/><path fill="#55298b" d="M 309.242188 187.585938 C 309.242188 189.574219 309.191406 191.566406 309.09375 193.554688 C 308.996094 195.542969 308.851562 197.527344 308.65625 199.507812 C 308.460938 201.492188 308.21875 203.464844 307.925781 205.433594 C 307.632812 207.40625 307.292969 209.367188 306.90625 211.320312 C 306.515625 213.269531 306.078125 215.214844 305.597656 217.144531 C 305.113281 219.078125 304.582031 220.996094 304.003906 222.898438 C 303.425781 224.804688 302.800781 226.695312 302.128906 228.570312 C 301.460938 230.445312 300.742188 232.300781 299.980469 234.140625 C 299.21875 235.980469 298.414062 237.800781 297.5625 239.601562 C 296.710938 241.398438 295.816406 243.175781 294.875 244.933594 C 293.9375 246.6875 292.957031 248.421875 291.933594 250.128906 C 290.910156 251.835938 289.84375 253.519531 288.738281 255.171875 C 287.632812 256.828125 286.488281 258.457031 285.300781 260.054688 C 284.113281 261.65625 282.890625 263.222656 281.628906 264.761719 C 280.363281 266.300781 279.0625 267.808594 277.726562 269.285156 C 276.390625 270.761719 275.015625 272.203125 273.609375 273.609375 C 272.203125 275.015625 270.761719 276.390625 269.285156 277.726562 C 267.808594 279.0625 266.300781 280.363281 264.761719 281.628906 C 263.222656 282.890625 261.65625 284.113281 260.054688 285.300781 C 258.457031 286.488281 256.828125 287.632812 255.175781 288.738281 C 253.519531 289.84375 251.835938 290.910156 250.128906 291.933594 C 248.421875 292.957031 246.6875 293.9375 244.933594 294.875 C 243.175781 295.816406 241.398438 296.710938 239.601562 297.5625 C 237.800781 298.414062 235.980469 299.21875 234.140625 299.980469 C 232.300781 300.742188 230.445312 301.460938 228.570312 302.128906 C 226.695312 302.800781 224.804688 303.425781 222.898438 304.003906 C 220.996094 304.582031 219.078125 305.113281 217.144531 305.597656 C 215.214844 306.078125 213.273438 306.515625 211.320312 306.90625 C 209.367188 307.292969 207.40625 307.632812 205.433594 307.925781 C 203.464844 308.21875 201.492188 308.460938 199.507812 308.65625 C 197.527344 308.851562 195.542969 308.996094 193.554688 309.09375 C 191.566406 309.191406 189.574219 309.242188 187.585938 309.242188 C 185.59375 309.242188 183.605469 309.191406 181.613281 309.09375 C 179.625 308.996094 177.640625 308.851562 175.660156 308.65625 C 173.679688 308.460938 171.703125 308.21875 169.734375 307.925781 C 167.765625 307.632812 165.804688 307.292969 163.851562 306.90625 C 161.898438 306.515625 159.957031 306.078125 158.023438 305.597656 C 156.09375 305.113281 154.175781 304.582031 152.269531 304.003906 C 150.363281 303.425781 148.472656 302.800781 146.597656 302.128906 C 144.726562 301.460938 142.867188 300.742188 141.027344 299.980469 C 139.1875 299.21875 137.367188 298.414062 135.570312 297.5625 C 133.769531 296.710938 131.992188 295.816406 130.234375 294.875 C 128.480469 293.9375 126.746094 292.957031 125.039062 291.933594 C 123.332031 290.910156 121.652344 289.84375 119.996094 288.738281 C 118.339844 287.632812 116.710938 286.488281 115.113281 285.300781 C 113.515625 284.113281 111.945312 282.890625 110.40625 281.628906 C 108.867188 280.363281 107.359375 279.0625 105.882812 277.726562 C 104.410156 276.390625 102.96875 275.015625 101.558594 273.609375 C 100.152344 272.203125 98.777344 270.761719 97.441406 269.285156 C 96.105469 267.808594 94.804688 266.300781 93.542969 264.761719 C 92.277344 263.222656 91.054688 261.65625 89.867188 260.054688 C 88.683594 258.457031 87.535156 256.828125 86.429688 255.171875 C 85.324219 253.519531 84.257812 251.835938 83.234375 250.128906 C 82.210938 248.421875 81.230469 246.6875 80.292969 244.933594 C 79.355469 243.175781 78.457031 241.398438 77.605469 239.601562 C 76.757812 237.800781 75.949219 235.980469 75.1875 234.140625 C 74.425781 232.300781 73.710938 230.445312 73.039062 228.570312 C 72.367188 226.695312 71.742188 224.804688 71.164062 222.898438 C 70.585938 220.996094 70.054688 219.078125 69.574219 217.144531 C 69.089844 215.214844 68.652344 213.269531 68.265625 211.320312 C 67.875 209.367188 67.535156 207.40625 67.242188 205.433594 C 66.953125 203.464844 66.707031 201.492188 66.511719 199.507812 C 66.316406 197.527344 66.171875 195.542969 66.074219 193.554688 C 65.976562 191.566406 65.925781 189.574219 65.925781 187.585938 C 65.925781 185.59375 65.976562 183.605469 66.074219 181.613281 C 66.171875 179.625 66.316406 177.640625 66.511719 175.660156 C 66.707031 173.679688 66.953125 171.703125 67.242188 169.734375 C 67.535156 167.765625 67.875 165.804688 68.265625 163.851562 C 68.652344 161.898438 69.089844 159.957031 69.574219 158.023438 C 70.054688 156.09375 70.585938 154.175781 71.164062 152.269531 C 71.742188 150.363281 72.367188 148.472656 73.039062 146.597656 C 73.710938 144.726562 74.425781 142.867188 75.1875 141.027344 C 75.949219 139.1875 76.757812 137.367188 77.605469 135.570312 C 78.457031 133.769531 79.355469 131.992188 80.292969 130.234375 C 81.230469 128.480469 82.210938 126.746094 83.234375 125.039062 C 84.257812 123.332031 85.324219 121.652344 86.429688 119.996094 C 87.535156 118.339844 88.683594 116.710938 89.867188 115.113281 C 91.054688 113.515625 92.277344 111.945312 93.542969 110.40625 C 94.804688 108.867188 96.105469 107.359375 97.441406 105.882812 C 98.777344 104.410156 100.152344 102.96875 101.558594 101.558594 C 102.96875 100.152344 104.410156 98.777344 105.882812 97.441406 C 107.359375 96.105469 108.867188 94.804688 110.40625 93.542969 C 111.945312 92.277344 113.515625 91.054688 115.113281 89.867188 C 116.710938 88.683594 118.339844 87.535156 119.996094 86.429688 C 121.652344 85.324219 123.332031 84.257812 125.039062 83.234375 C 126.746094 82.210938 128.480469 81.230469 130.234375 80.292969 C 131.992188 79.351562 133.769531 78.457031 135.570312 77.605469 C 137.367188 76.757812 139.1875 75.949219 141.027344 75.1875 C 142.867188 74.425781 144.726562 73.710938 146.597656 73.039062 C 148.472656 72.367188 150.363281 71.742188 152.269531 71.164062 C 154.175781 70.585938 156.09375 70.054688 158.023438 69.574219 C 159.957031 69.089844 161.898438 68.652344 163.851562 68.265625 C 165.804688 67.875 167.765625 67.535156 169.734375 67.242188 C 171.703125 66.953125 173.679688 66.707031 175.660156 66.511719 C 177.640625 66.316406 179.625 66.171875 181.613281 66.074219 C 183.605469 65.976562 185.59375 65.925781 187.585938 65.925781 C 189.574219 65.925781 191.566406 65.976562 193.554688 66.074219 C 195.542969 66.171875 197.527344 66.316406 199.507812 66.511719 C 201.492188 66.707031 203.464844 66.953125 205.433594 67.242188 C 207.40625 67.535156 209.367188 67.875 211.320312 68.265625 C 213.273438 68.652344 215.214844 69.089844 217.144531 69.574219 C 219.078125 70.054688 220.996094 70.585938 222.898438 71.164062 C 224.804688 71.742188 226.695312 72.367188 228.570312 73.039062 C 230.445312 73.710938 232.300781 74.425781 234.140625 75.1875 C 235.980469 75.949219 237.800781 76.757812 239.601562 77.605469 C 241.398438 78.457031 243.175781 79.351562 244.933594 80.292969 C 246.6875 81.230469 248.421875 82.210938 250.128906 83.234375 C 251.835938 84.257812 253.519531 85.324219 255.175781 86.429688 C 256.828125 87.535156 258.457031 88.683594 260.054688 89.867188 C 261.65625 91.054688 263.222656 92.277344 264.761719 93.542969 C 266.300781 94.804688 267.808594 96.105469 269.285156 97.441406 C 270.761719 98.777344 272.203125 100.152344 273.609375 101.558594 C 275.015625 102.96875 276.390625 104.410156 277.726562 105.882812 C 279.0625 107.359375 280.363281 108.867188 281.628906 110.40625 C 282.890625 111.945312 284.113281 113.515625 285.300781 115.113281 C 286.488281 116.710938 287.632812 118.339844 288.738281 119.996094 C 289.84375 121.652344 290.910156 123.332031 291.933594 125.039062 C 292.957031 126.746094 293.9375 128.480469 294.875 130.234375 C 295.816406 131.992188 296.710938 133.769531 297.5625 135.570312 C 298.414062 137.367188 299.21875 139.1875 299.980469 141.027344 C 300.742188 142.867188 301.460938 144.726562 302.128906 146.597656 C 302.800781 148.472656 303.425781 150.363281 304.003906 152.269531 C 304.582031 154.175781 305.113281 156.09375 305.597656 158.023438 C 306.078125 159.957031 306.515625 161.898438 306.90625 163.851562 C 307.292969 165.804688 307.632812 167.765625 307.925781 169.734375 C 308.21875 171.703125 308.460938 173.679688 308.65625 175.660156 C 308.851562 177.640625 308.996094 179.625 309.09375 181.613281 C 309.191406 183.605469 309.242188 185.59375 309.242188 187.585938 Z M 309.242188 187.585938 " fill-opacity="1" fill-rule="nonzero"/><g clip-path="url(#e495f2040e)"><path fill="#ffffff" d="M 143.96875 198.363281 C 141.015625 196.933594 137.71875 196.113281 134.222656 196.113281 C 121.820312 196.113281 111.722656 206.207031 111.722656 218.613281 C 111.722656 231.015625 121.820312 241.113281 134.222656 241.113281 C 142.007812 241.113281 148.878906 237.132812 152.921875 231.105469 L 174.175781 241.746094 C 173.808594 243.351562 173.597656 245.019531 173.597656 246.738281 C 173.597656 259.140625 183.695312 269.238281 196.097656 269.238281 C 208.503906 269.238281 218.597656 259.140625 218.597656 246.738281 C 218.597656 242.074219 217.171875 237.738281 214.730469 234.140625 L 244.597656 202.914062 C 248.34375 205.695312 252.960938 207.363281 257.972656 207.363281 C 270.378906 207.363281 280.472656 197.265625 280.472656 184.863281 C 280.472656 172.457031 270.378906 162.363281 257.972656 162.363281 C 252.78125 162.363281 248.011719 164.144531 244.199219 167.109375 L 213.851562 136.761719 C 216.816406 132.949219 218.597656 128.179688 218.597656 122.988281 C 218.597656 110.582031 208.503906 100.488281 196.097656 100.488281 C 183.695312 100.488281 173.597656 110.582031 173.597656 122.988281 C 173.597656 124.695312 173.808594 126.359375 174.171875 127.960938 L 154.226562 135.230469 C 150.484375 127.96875 142.933594 122.988281 134.222656 122.988281 C 121.820312 122.988281 111.722656 133.082031 111.722656 145.488281 C 111.722656 157.890625 121.820312 167.988281 134.222656 167.988281 C 137.425781 167.988281 140.464844 167.304688 143.222656 166.09375 L 153.578125 183.515625 Z M 134.222656 235.488281 C 124.917969 235.488281 117.347656 227.917969 117.347656 218.613281 C 117.347656 209.304688 124.917969 201.738281 134.222656 201.738281 C 143.53125 201.738281 151.097656 209.304688 151.097656 218.613281 C 151.097656 227.917969 143.53125 235.488281 134.222656 235.488281 Z M 155.429688 226.066406 C 156.25 223.730469 156.722656 221.226562 156.722656 218.613281 C 156.722656 211.710938 153.597656 205.535156 148.695312 201.40625 L 156.785156 188.914062 L 181.171875 229.953125 C 179.117188 231.78125 177.398438 233.96875 176.125 236.429688 Z M 196.097656 145.488281 C 201.292969 145.488281 206.0625 143.703125 209.875 140.738281 L 240.226562 171.089844 C 238.40625 173.429688 237.042969 176.132812 236.257812 179.074219 L 218.589844 176.644531 C 218.589844 176.570312 218.597656 176.496094 218.597656 176.425781 C 218.597656 164.019531 208.503906 153.925781 196.097656 153.925781 C 188.3125 153.925781 181.441406 157.902344 177.402344 163.929688 L 174.046875 162.25 L 186.359375 143.238281 C 189.308594 144.664062 192.605469 145.488281 196.097656 145.488281 Z M 198.910156 224.429688 L 198.910156 198.726562 C 208.050781 197.578125 215.488281 190.9375 217.816406 182.210938 L 235.484375 184.640625 C 235.484375 184.714844 235.472656 184.789062 235.472656 184.863281 C 235.472656 190.234375 237.371094 195.164062 240.523438 199.035156 L 210.992188 229.914062 C 207.679688 226.980469 203.515625 225.011719 198.910156 224.429688 Z M 196.097656 159.550781 C 205.40625 159.550781 212.972656 167.117188 212.972656 176.425781 C 212.972656 185.730469 205.40625 193.300781 196.097656 193.300781 C 186.792969 193.300781 179.222656 185.730469 179.222656 176.425781 C 179.222656 167.117188 186.792969 159.550781 196.097656 159.550781 Z M 174.894531 168.96875 C 174.070312 171.304688 173.597656 173.808594 173.597656 176.425781 C 173.597656 187.875 182.207031 197.335938 193.285156 198.730469 L 193.285156 224.433594 C 190.621094 224.769531 188.101562 225.566406 185.8125 226.75 L 160.195312 183.644531 L 170.96875 167.003906 Z M 196.097656 263.613281 C 186.792969 263.613281 179.222656 256.042969 179.222656 246.738281 C 179.222656 237.429688 186.792969 229.863281 196.097656 229.863281 C 205.40625 229.863281 212.972656 237.429688 212.972656 246.738281 C 212.972656 256.042969 205.40625 263.613281 196.097656 263.613281 Z M 257.972656 167.988281 C 267.28125 167.988281 274.847656 175.554688 274.847656 184.863281 C 274.847656 194.167969 267.28125 201.738281 257.972656 201.738281 C 248.667969 201.738281 241.097656 194.167969 241.097656 184.863281 C 241.097656 175.554688 248.667969 167.988281 257.972656 167.988281 Z M 196.097656 106.113281 C 205.40625 106.113281 212.972656 113.679688 212.972656 122.988281 C 212.972656 132.292969 205.40625 139.863281 196.097656 139.863281 C 186.792969 139.863281 179.222656 132.292969 179.222656 122.988281 C 179.222656 113.679688 186.792969 106.113281 196.097656 106.113281 Z M 176.097656 133.242188 C 177.472656 135.914062 179.355469 138.273438 181.628906 140.191406 L 168.984375 159.71875 L 155.429688 152.941406 C 156.25 150.605469 156.722656 148.101562 156.722656 145.488281 C 156.722656 143.777344 156.515625 142.113281 156.152344 140.511719 Z M 117.347656 145.488281 C 117.347656 136.179688 124.917969 128.613281 134.222656 128.613281 C 143.53125 128.613281 151.097656 136.179688 151.097656 145.488281 C 151.097656 154.792969 143.53125 162.363281 134.222656 162.363281 C 124.917969 162.363281 117.347656 154.792969 117.347656 145.488281 Z M 148.046875 163.203125 C 149.933594 161.730469 151.585938 159.972656 152.921875 157.980469 L 165.90625 164.472656 L 156.988281 178.246094 Z M 148.046875 163.203125 " fill-opacity="1" fill-rule="nonzero"/></g></svg>