<svg xmlns="http://www.w3.org/2000/svg" xmlns:xlink="http://www.w3.org/1999/xlink" width="500" zoomAndPan="magnify" viewBox="0 0 375 374.999991" height="500" preserveAspectRatio="xMidYMid meet" version="1.0"><defs><clipPath id="8f4dae88e5"><path d="M 34.722656 34.722656 L 339.972656 34.722656 L 339.972656 339.972656 L 34.722656 339.972656 Z M 34.722656 34.722656 " clip-rule="nonzero"/></clipPath></defs><rect x="-37.5" width="450" fill="#ffffff" y="-37.499999" height="449.999989" fill-opacity="1"/><rect x="-37.5" width="450" fill="#ffffff" y="-37.499999" height="449.999989" fill-opacity="1"/><rect x="-37.5" width="450" fill="#ffffff" y="-37.499999" height="449.999989" fill-opacity="1"/><g clip-path="url(#8f4dae88e5)"><path fill="#55298b" d="M 339.972656 187.347656 C 339.972656 189.847656 339.914062 192.34375 339.789062 194.839844 C 339.667969 197.332031 339.484375 199.824219 339.238281 202.308594 C 338.996094 204.792969 338.6875 207.273438 338.320312 209.742188 C 337.957031 212.214844 337.527344 214.675781 337.042969 217.125 C 336.554688 219.574219 336.007812 222.011719 335.398438 224.433594 C 334.792969 226.855469 334.128906 229.261719 333.402344 231.652344 C 332.675781 234.042969 331.894531 236.414062 331.050781 238.765625 C 330.210938 241.117188 329.3125 243.449219 328.355469 245.757812 C 327.398438 248.0625 326.386719 250.347656 325.320312 252.605469 C 324.253906 254.863281 323.128906 257.09375 321.953125 259.296875 C 320.773438 261.5 319.542969 263.671875 318.261719 265.8125 C 316.976562 267.957031 315.640625 270.066406 314.253906 272.144531 C 312.863281 274.21875 311.425781 276.261719 309.9375 278.269531 C 308.449219 280.273438 306.914062 282.242188 305.328125 284.171875 C 303.746094 286.105469 302.113281 287.996094 300.4375 289.847656 C 298.757812 291.695312 297.039062 293.503906 295.269531 295.269531 C 293.503906 297.039062 291.695312 298.757812 289.847656 300.4375 C 287.996094 302.113281 286.105469 303.746094 284.171875 305.328125 C 282.242188 306.914062 280.273438 308.449219 278.269531 309.9375 C 276.261719 311.425781 274.21875 312.863281 272.144531 314.253906 C 270.066406 315.640625 267.957031 316.976562 265.8125 318.261719 C 263.671875 319.542969 261.5 320.773438 259.296875 321.953125 C 257.09375 323.128906 254.863281 324.253906 252.605469 325.320312 C 250.347656 326.386719 248.0625 327.398438 245.757812 328.355469 C 243.449219 329.3125 241.117188 330.210938 238.765625 331.050781 C 236.414062 331.894531 234.042969 332.675781 231.652344 333.402344 C 229.261719 334.128906 226.855469 334.792969 224.433594 335.398438 C 222.011719 336.007812 219.574219 336.554688 217.125 337.042969 C 214.675781 337.527344 212.214844 337.957031 209.742188 338.320312 C 207.273438 338.6875 204.792969 338.996094 202.308594 339.238281 C 199.824219 339.484375 197.332031 339.667969 194.839844 339.789062 C 192.34375 339.914062 189.847656 339.972656 187.347656 339.972656 C 184.851562 339.972656 182.355469 339.914062 179.859375 339.789062 C 177.367188 339.667969 174.875 339.484375 172.390625 339.238281 C 169.902344 338.996094 167.425781 338.6875 164.953125 338.320312 C 162.484375 337.957031 160.023438 337.527344 157.574219 337.042969 C 155.125 336.554688 152.6875 336.007812 150.265625 335.398438 C 147.839844 334.792969 145.433594 334.128906 143.042969 333.402344 C 140.652344 332.675781 138.28125 331.894531 135.929688 331.050781 C 133.578125 330.210938 131.25 329.3125 128.941406 328.355469 C 126.632812 327.398438 124.351562 326.386719 122.09375 325.320312 C 119.835938 324.253906 117.605469 323.128906 115.402344 321.953125 C 113.199219 320.773438 111.027344 319.542969 108.882812 318.261719 C 106.742188 316.976562 104.632812 315.640625 102.554688 314.253906 C 100.476562 312.863281 98.4375 311.425781 96.429688 309.9375 C 94.425781 308.449219 92.457031 306.914062 90.523438 305.328125 C 88.59375 303.746094 86.703125 302.113281 84.851562 300.4375 C 83 298.757812 81.191406 297.039062 79.425781 295.269531 C 77.660156 293.503906 75.9375 291.695312 74.261719 289.847656 C 72.585938 287.996094 70.953125 286.105469 69.367188 284.171875 C 67.785156 282.242188 66.246094 280.273438 64.757812 278.269531 C 63.273438 276.261719 61.832031 274.21875 60.445312 272.144531 C 59.058594 270.066406 57.722656 267.957031 56.4375 265.8125 C 55.152344 263.671875 53.921875 261.5 52.746094 259.296875 C 51.570312 257.09375 50.445312 254.863281 49.378906 252.605469 C 48.308594 250.347656 47.296875 248.0625 46.34375 245.757812 C 45.386719 243.449219 44.488281 241.117188 43.644531 238.765625 C 42.804688 236.414062 42.019531 234.042969 41.296875 231.652344 C 40.570312 229.261719 39.90625 226.855469 39.296875 224.433594 C 38.691406 222.011719 38.144531 219.574219 37.65625 217.125 C 37.167969 214.675781 36.742188 212.214844 36.375 209.742188 C 36.007812 207.273438 35.703125 204.792969 35.460938 202.308594 C 35.214844 199.824219 35.03125 197.332031 34.90625 194.839844 C 34.785156 192.34375 34.722656 189.847656 34.722656 187.347656 C 34.722656 184.851562 34.785156 182.355469 34.90625 179.859375 C 35.03125 177.367188 35.214844 174.875 35.460938 172.390625 C 35.703125 169.902344 36.007812 167.425781 36.375 164.953125 C 36.742188 162.484375 37.167969 160.023438 37.65625 157.574219 C 38.144531 155.125 38.691406 152.6875 39.296875 150.265625 C 39.90625 147.839844 40.570312 145.433594 41.296875 143.042969 C 42.019531 140.652344 42.804688 138.28125 43.644531 135.929688 C 44.488281 133.578125 45.386719 131.25 46.34375 128.941406 C 47.296875 126.632812 48.308594 124.351562 49.378906 122.09375 C 50.445312 119.835938 51.570312 117.605469 52.746094 115.402344 C 53.921875 113.199219 55.152344 111.027344 56.4375 108.882812 C 57.722656 106.742188 59.058594 104.632812 60.445312 102.554688 C 61.832031 100.476562 63.273438 98.4375 64.757812 96.429688 C 66.246094 94.425781 67.785156 92.457031 69.367188 90.523438 C 70.953125 88.59375 72.585938 86.703125 74.261719 84.851562 C 75.9375 83 77.660156 81.191406 79.425781 79.425781 C 81.191406 77.660156 83 75.9375 84.851562 74.261719 C 86.703125 72.585938 88.59375 70.953125 90.523438 69.367188 C 92.457031 67.785156 94.425781 66.246094 96.429688 64.757812 C 98.4375 63.273438 100.476562 61.832031 102.554688 60.445312 C 104.632812 59.058594 106.742188 57.722656 108.882812 56.4375 C 111.027344 55.152344 113.199219 53.921875 115.402344 52.746094 C 117.605469 51.570312 119.835938 50.445312 122.09375 49.378906 C 124.351562 48.308594 126.632812 47.296875 128.941406 46.34375 C 131.25 45.386719 133.578125 44.488281 135.929688 43.644531 C 138.28125 42.804688 140.652344 42.019531 143.042969 41.296875 C 145.433594 40.570312 147.839844 39.90625 150.265625 39.296875 C 152.6875 38.691406 155.125 38.144531 157.574219 37.65625 C 160.023438 37.167969 162.484375 36.742188 164.953125 36.375 C 167.425781 36.007812 169.902344 35.703125 172.390625 35.460938 C 174.875 35.214844 177.367188 35.03125 179.859375 34.90625 C 182.355469 34.785156 184.851562 34.722656 187.347656 34.722656 C 189.847656 34.722656 192.34375 34.785156 194.839844 34.90625 C 197.332031 35.03125 199.824219 35.214844 202.308594 35.460938 C 204.792969 35.703125 207.273438 36.007812 209.742188 36.375 C 212.214844 36.742188 214.675781 37.167969 217.125 37.65625 C 219.574219 38.144531 222.011719 38.691406 224.433594 39.296875 C 226.855469 39.90625 229.261719 40.570312 231.652344 41.296875 C 234.042969 42.019531 236.414062 42.804688 238.765625 43.644531 C 241.117188 44.488281 243.449219 45.386719 245.757812 46.34375 C 248.0625 47.296875 250.347656 48.308594 252.605469 49.378906 C 254.863281 50.445312 257.09375 51.570312 259.296875 52.746094 C 261.5 53.921875 263.671875 55.152344 265.8125 56.4375 C 267.957031 57.722656 270.066406 59.058594 272.144531 60.445312 C 274.21875 61.832031 276.261719 63.273438 278.269531 64.757812 C 280.273438 66.246094 282.242188 67.785156 284.171875 69.367188 C 286.105469 70.953125 287.996094 72.585938 289.847656 74.261719 C 291.695312 75.9375 293.503906 77.660156 295.269531 79.425781 C 297.039062 81.191406 298.757812 83 300.4375 84.851562 C 302.113281 86.703125 303.746094 88.59375 305.328125 90.523438 C 306.914062 92.457031 308.449219 94.425781 309.9375 96.429688 C 311.425781 98.4375 312.863281 100.476562 314.253906 102.554688 C 315.640625 104.632812 316.976562 106.742188 318.261719 108.882812 C 319.542969 111.027344 320.773438 113.199219 321.953125 115.402344 C 323.128906 117.605469 324.253906 119.835938 325.320312 122.09375 C 326.386719 124.351562 327.398438 126.632812 328.355469 128.941406 C 329.3125 131.25 330.210938 133.578125 331.050781 135.929688 C 331.894531 138.28125 332.675781 140.652344 333.402344 143.042969 C 334.128906 145.433594 334.792969 147.839844 335.398438 150.265625 C 336.007812 152.6875 336.554688 155.125 337.042969 157.574219 C 337.527344 160.023438 337.957031 162.484375 338.320312 164.953125 C 338.6875 167.425781 338.996094 169.902344 339.238281 172.390625 C 339.484375 174.875 339.667969 177.367188 339.789062 179.859375 C 339.914062 182.355469 339.972656 184.851562 339.972656 187.347656 Z M 339.972656 187.347656 " fill-opacity="1" fill-rule="nonzero"/></g><path fill="#fffffe" d="M 265.867188 217.753906 L 268.550781 217.753906 L 268.550781 228.726562 L 265.867188 228.726562 Z M 265.867188 217.753906 " fill-opacity="1" fill-rule="nonzero"/><path fill="#fffffe" d="M 270.339844 202.492188 C 270.636719 202.492188 270.875 202.730469 270.875 203.027344 L 270.875 212.925781 C 270.875 213.164062 270.695312 213.402344 270.457031 213.460938 C 270.398438 213.460938 270.398438 213.460938 270.339844 213.460938 L 264.078125 213.460938 C 264.019531 213.460938 264.019531 213.460938 263.960938 213.460938 C 263.722656 213.402344 263.542969 213.164062 263.542969 212.925781 L 263.542969 203.027344 C 263.542969 202.730469 263.78125 202.492188 264.078125 202.492188 Z M 270.339844 202.492188 " fill-opacity="1" fill-rule="nonzero"/><path fill="#fffffe" d="M 212.6875 187.347656 L 150.503906 166.722656 L 212.6875 146.09375 L 274.871094 166.722656 Z M 212.6875 187.347656 " fill-opacity="1" fill-rule="nonzero"/><path fill="#fffffe" d="M 250.484375 179.300781 L 250.484375 186.574219 L 212.628906 199.152344 L 174.828125 186.574219 L 174.828125 179.300781 L 211.972656 191.640625 C 212.210938 191.703125 212.449219 191.761719 212.628906 191.761719 C 212.804688 191.761719 213.105469 191.703125 213.285156 191.640625 Z M 250.484375 179.300781 " fill-opacity="1" fill-rule="nonzero"/><path fill="#fffffe" d="M 250.484375 191.105469 L 250.484375 207.144531 C 235.519531 215.308594 220.4375 218.648438 205.414062 217.039062 C 195.21875 215.964844 184.964844 212.6875 174.828125 207.144531 L 174.828125 191.105469 L 211.972656 203.445312 C 212.210938 203.507812 212.449219 203.566406 212.628906 203.566406 C 212.804688 203.566406 213.105469 203.507812 213.285156 203.445312 Z M 250.484375 191.105469 " fill-opacity="1" fill-rule="nonzero"/><path fill="#fffffe" d="M 203.089844 232.300781 L 203.089844 240.886719 L 114.257812 240.886719 C 113.0625 240.886719 112.109375 241.839844 112.109375 243.035156 C 112.109375 244.226562 113.0625 245.179688 114.257812 245.179688 L 203.089844 245.179688 L 203.089844 249.652344 C 203.089844 251.917969 201.242188 253.765625 198.976562 253.765625 L 106.742188 253.765625 C 102.929688 253.765625 99.828125 250.664062 99.828125 246.847656 L 99.828125 239.21875 C 99.828125 235.402344 102.929688 232.300781 106.742188 232.300781 Z M 203.089844 232.300781 " fill-opacity="1" fill-rule="nonzero"/><path fill="#fffffe" d="M 118.90625 120.875 L 118.90625 228.007812 L 106.742188 228.007812 C 104.121094 228.007812 101.734375 228.902344 99.828125 230.394531 L 99.828125 130.414062 C 99.828125 125.167969 104.121094 120.875 109.367188 120.875 Z M 118.90625 120.875 " fill-opacity="1" fill-rule="nonzero"/><path fill="#fffffe" d="M 170.597656 208.394531 C 170.597656 209.167969 171.011719 209.886719 171.667969 210.242188 C 182.101562 216.144531 192.59375 219.722656 203.089844 221.09375 L 203.089844 228.007812 L 123.199219 228.007812 L 123.199219 120.875 L 200.347656 120.875 C 201.835938 120.875 203.089844 122.125 203.089844 123.617188 L 203.089844 144.78125 L 143.050781 164.695312 C 142.15625 164.992188 141.5625 165.828125 141.5625 166.722656 C 141.5625 167.613281 142.15625 168.449219 143.050781 168.746094 L 170.597656 177.871094 Z M 170.597656 208.394531 " fill-opacity="1" fill-rule="nonzero"/><path fill="#fffffe" d="M 269.324219 173.101562 L 269.324219 198.199219 L 265.03125 198.199219 L 265.03125 174.472656 Z M 269.324219 173.101562 " fill-opacity="1" fill-rule="nonzero"/></svg>