<svg xmlns="http://www.w3.org/2000/svg" xmlns:xlink="http://www.w3.org/1999/xlink" width="500" zoomAndPan="magnify" viewBox="0 0 375 374.999991" height="500" preserveAspectRatio="xMidYMid meet" version="1.0"><defs><clipPath id="21aeb3c81c"><path d="M 34.851562 34.851562 L 340.101562 34.851562 L 340.101562 340.101562 L 34.851562 340.101562 Z M 34.851562 34.851562 " clip-rule="nonzero"/></clipPath></defs><rect x="-37.5" width="450" fill="#ffffff" y="-37.499999" height="449.999989" fill-opacity="1"/><rect x="-37.5" width="450" fill="#ffffff" y="-37.499999" height="449.999989" fill-opacity="1"/><g clip-path="url(#21aeb3c81c)"><path fill="#55298b" d="M 187.476562 34.851562 C 103.023438 34.851562 34.851562 103.023438 34.851562 187.476562 C 34.851562 271.929688 103.023438 340.101562 187.476562 340.101562 C 271.929688 340.101562 340.101562 271.929688 340.101562 187.476562 C 340.101562 103.023438 271.929688 34.851562 187.476562 34.851562 Z M 260.058594 233.605469 L 135.585938 233.605469 L 166.109375 259.042969 C 169.160156 261.753906 169.839844 266.503906 167.125 269.554688 C 165.769531 271.25 163.394531 272.269531 161.359375 272.269531 C 159.664062 272.269531 157.96875 271.589844 156.613281 270.574219 L 110.148438 231.90625 C 110.148438 231.90625 110.148438 231.570312 109.808594 231.570312 C 109.128906 231.230469 108.789062 230.550781 108.449219 229.871094 C 108.449219 229.535156 108.113281 229.535156 108.113281 229.195312 C 107.773438 228.175781 107.433594 227.160156 107.433594 226.140625 C 107.433594 225.125 107.773438 224.105469 108.113281 223.089844 C 108.113281 222.75 108.449219 222.75 108.449219 222.410156 C 108.789062 221.734375 109.128906 221.054688 109.808594 220.714844 C 109.808594 220.714844 109.808594 220.375 110.148438 220.375 L 156.273438 181.710938 C 159.324219 178.996094 164.074219 179.335938 166.789062 182.730469 C 169.5 185.78125 169.160156 190.53125 165.769531 193.242188 L 135.246094 218.679688 L 259.71875 218.679688 C 263.789062 218.679688 267.179688 222.070312 267.179688 226.140625 C 267.179688 230.210938 264.128906 233.605469 260.058594 233.605469 Z M 266.84375 151.863281 C 266.84375 152.203125 266.503906 152.203125 266.503906 152.542969 C 266.164062 153.222656 265.824219 153.898438 265.144531 154.238281 C 265.144531 154.238281 265.144531 154.578125 264.808594 154.578125 L 218.679688 193.242188 C 217.324219 194.261719 215.628906 194.9375 213.933594 194.9375 C 211.898438 194.9375 209.523438 193.921875 208.167969 192.226562 C 205.453125 189.171875 205.792969 184.425781 209.183594 181.710938 L 239.707031 156.273438 L 114.894531 156.273438 C 110.824219 156.273438 107.433594 152.882812 107.433594 148.8125 C 107.433594 144.742188 110.824219 141.351562 114.894531 141.351562 L 239.371094 141.351562 L 208.84375 115.914062 C 205.792969 113.199219 205.113281 108.449219 207.828125 105.398438 C 210.539062 102.347656 215.289062 101.667969 218.339844 104.382812 L 264.46875 143.046875 C 264.46875 143.046875 264.46875 143.386719 264.808594 143.386719 C 265.484375 143.722656 265.824219 144.402344 266.164062 145.082031 C 266.164062 145.421875 266.503906 145.421875 266.503906 145.757812 C 266.84375 146.777344 267.179688 147.792969 267.179688 148.8125 C 267.519531 149.828125 267.179688 150.847656 266.84375 151.863281 Z M 266.84375 151.863281 " fill-opacity="1" fill-rule="nonzero"/></g></svg>