<svg xmlns="http://www.w3.org/2000/svg" xmlns:xlink="http://www.w3.org/1999/xlink" width="500" zoomAndPan="magnify" viewBox="0 0 375 374.999991" height="500" preserveAspectRatio="xMidYMid meet" version="1.0"><defs><clipPath id="e3998a83a0"><path d="M 66.761719 66.761719 L 308.261719 66.761719 L 308.261719 308.261719 L 66.761719 308.261719 Z M 66.761719 66.761719 " clip-rule="nonzero"/></clipPath></defs><rect x="-37.5" width="450" fill="#ffffff" y="-37.499999" height="449.999989" fill-opacity="1"/><rect x="-37.5" width="450" fill="#ffffff" y="-37.499999" height="449.999989" fill-opacity="1"/><rect x="-37.5" width="450" fill="#55298b" y="-37.499999" height="449.999989" fill-opacity="1"/><g clip-path="url(#e3998a83a0)"><path fill="#ffffff" d="M 112.902344 206.832031 C 108.675781 204.789062 103.960938 203.609375 98.960938 203.609375 C 81.207031 203.609375 66.761719 218.054688 66.761719 235.8125 C 66.761719 253.566406 81.207031 268.011719 98.960938 268.011719 C 110.101562 268.011719 119.933594 262.320312 125.71875 253.695312 L 156.136719 268.921875 C 155.613281 271.21875 155.3125 273.605469 155.3125 276.0625 C 155.3125 293.816406 169.757812 308.261719 187.511719 308.261719 C 205.265625 308.261719 219.710938 293.816406 219.710938 276.0625 C 219.710938 269.386719 217.671875 263.183594 214.175781 258.035156 L 256.917969 213.347656 C 262.277344 217.324219 268.886719 219.710938 276.0625 219.710938 C 293.816406 219.710938 308.261719 205.265625 308.261719 187.511719 C 308.261719 169.757812 293.816406 155.3125 276.0625 155.3125 C 268.628906 155.3125 261.804688 157.863281 256.347656 162.105469 L 212.917969 118.675781 C 217.160156 113.21875 219.710938 106.390625 219.710938 98.960938 C 219.710938 81.207031 205.265625 66.761719 187.511719 66.761719 C 169.757812 66.761719 155.3125 81.207031 155.3125 98.960938 C 155.3125 101.40625 155.609375 103.785156 156.132812 106.082031 L 127.585938 116.480469 C 122.234375 106.09375 111.425781 98.960938 98.960938 98.960938 C 81.207031 98.960938 66.761719 113.40625 66.761719 131.160156 C 66.761719 148.914062 81.207031 163.359375 98.960938 163.359375 C 103.542969 163.359375 107.890625 162.386719 111.839844 160.652344 L 126.65625 185.585938 Z M 98.960938 259.960938 C 85.640625 259.960938 74.8125 249.128906 74.8125 235.8125 C 74.8125 222.492188 85.640625 211.660156 98.960938 211.660156 C 112.28125 211.660156 123.109375 222.492188 123.109375 235.8125 C 123.109375 249.128906 112.28125 259.960938 98.960938 259.960938 Z M 129.304688 246.480469 C 130.484375 243.136719 131.160156 239.554688 131.160156 235.8125 C 131.160156 225.9375 126.683594 217.097656 119.667969 211.191406 L 131.246094 193.3125 L 166.144531 252.039062 C 163.207031 254.65625 160.75 257.789062 158.925781 261.308594 Z M 187.511719 131.160156 C 194.941406 131.160156 201.765625 128.609375 207.226562 124.367188 L 250.660156 167.800781 C 248.054688 171.148438 246.105469 175.015625 244.984375 179.226562 L 219.699219 175.75 C 219.695312 175.644531 219.710938 175.539062 219.710938 175.4375 C 219.710938 157.679688 205.265625 143.234375 187.511719 143.234375 C 176.371094 143.234375 166.53125 148.925781 160.753906 157.554688 L 155.949219 155.152344 L 173.570312 127.941406 C 177.792969 129.980469 182.511719 131.160156 187.511719 131.160156 Z M 191.535156 244.136719 L 191.535156 207.355469 C 204.617188 205.710938 215.257812 196.203125 218.59375 183.71875 L 243.875 187.195312 C 243.875 187.300781 243.859375 187.40625 243.859375 187.511719 C 243.859375 195.199219 246.574219 202.253906 251.085938 207.796875 L 208.824219 251.988281 C 204.085938 247.789062 198.125 244.96875 191.535156 244.136719 Z M 187.511719 151.285156 C 200.828125 151.285156 211.660156 162.117188 211.660156 175.4375 C 211.660156 188.753906 200.828125 199.585938 187.511719 199.585938 C 174.191406 199.585938 163.359375 188.753906 163.359375 175.4375 C 163.359375 162.117188 174.191406 151.285156 187.511719 151.285156 Z M 157.167969 164.765625 C 155.988281 168.109375 155.3125 171.691406 155.3125 175.4375 C 155.3125 191.824219 167.628906 205.367188 183.484375 207.359375 L 183.484375 244.140625 C 179.671875 244.621094 176.066406 245.765625 172.789062 247.460938 L 136.128906 185.769531 L 151.546875 161.957031 Z M 187.511719 300.210938 C 174.191406 300.210938 163.359375 289.378906 163.359375 276.0625 C 163.359375 262.742188 174.191406 251.910156 187.511719 251.910156 C 200.828125 251.910156 211.660156 262.742188 211.660156 276.0625 C 211.660156 289.378906 200.828125 300.210938 187.511719 300.210938 Z M 276.0625 163.359375 C 289.378906 163.359375 300.210938 174.191406 300.210938 187.511719 C 300.210938 200.828125 289.378906 211.660156 276.0625 211.660156 C 262.742188 211.660156 251.910156 200.828125 251.910156 187.511719 C 251.910156 174.191406 262.742188 163.359375 276.0625 163.359375 Z M 187.511719 74.8125 C 200.828125 74.8125 211.660156 85.640625 211.660156 98.960938 C 211.660156 112.28125 200.828125 123.109375 187.511719 123.109375 C 174.191406 123.109375 163.359375 112.28125 163.359375 98.960938 C 163.359375 85.640625 174.191406 74.8125 187.511719 74.8125 Z M 158.886719 113.640625 C 160.851562 117.460938 163.546875 120.835938 166.800781 123.582031 L 148.707031 151.53125 L 129.304688 141.832031 C 130.484375 138.488281 131.160156 134.902344 131.160156 131.160156 C 131.160156 128.714844 130.863281 126.335938 130.339844 124.039062 Z M 74.8125 131.160156 C 74.8125 117.84375 85.640625 107.011719 98.960938 107.011719 C 112.28125 107.011719 123.109375 117.84375 123.109375 131.160156 C 123.109375 144.480469 112.28125 155.3125 98.960938 155.3125 C 85.640625 155.3125 74.8125 144.480469 74.8125 131.160156 Z M 118.742188 156.515625 C 121.441406 154.40625 123.808594 151.894531 125.71875 149.042969 L 144.300781 158.332031 L 131.539062 178.042969 Z M 118.742188 156.515625 " fill-opacity="1" fill-rule="nonzero"/></g></svg>